<svg width="30" height="30" viewBox="0 0 30 30" fill="none" xmlns="http://www.w3.org/2000/svg">
<circle cx="15" cy="15" r="15" fill="#E1FEFA"/>
<path d="M16.0924 20.2924L16.0924 20.2924L16.0876 20.2973C15.965 20.4234 15.7939 20.5 15.6 20.5C15.4054 20.5 15.2318 20.4227 15.1076 20.2984L9.70755 14.8984C9.57597 14.7669 9.5 14.5927 9.5 14.4V10.2C9.5 9.81614 9.81614 9.5 10.2 9.5H14.4C14.5946 9.5 14.7682 9.5773 14.8924 9.70155L20.2924 15.1016C20.4194 15.2285 20.5 15.4091 20.5 15.6C20.5 15.7939 20.4234 15.965 20.2973 16.0876L20.2973 16.0876L20.2924 16.0924L16.0924 20.2924ZM9.7 11.1C9.7 11.8741 10.3259 12.5 11.1 12.5C11.8741 12.5 12.5 11.8741 12.5 11.1C12.5 10.3259 11.8741 9.7 11.1 9.7C10.3259 9.7 9.7 10.3259 9.7 11.1Z" stroke="#6DDFC0"/>
</svg>
