<svg width="30" height="30" viewBox="0 0 30 30" fill="none" xmlns="http://www.w3.org/2000/svg">
<circle cx="15" cy="15" r="15" fill="#EEEEFC"/>
<path d="M17.5763 16.5472H17.0343L16.8422 16.3619C17.5146 15.5798 17.9194 14.5643 17.9194 13.4597C17.9194 10.9966 15.9228 9 13.4597 9C10.9966 9 9 10.9966 9 13.4597C9 15.9228 10.9966 17.9194 13.4597 17.9194C14.5643 17.9194 15.5798 17.5146 16.3619 16.8422L16.5472 17.0343V17.5763L19.9777 21L21 19.9777L17.5763 16.5472V16.5472ZM13.4597 16.5472C11.7513 16.5472 10.3722 15.1681 10.3722 13.4597C10.3722 11.7513 11.7513 10.3722 13.4597 10.3722C15.1681 10.3722 16.5472 11.7513 16.5472 13.4597C16.5472 15.1681 15.1681 16.5472 13.4597 16.5472Z" fill="#6E80DC"/>
</svg>
